<svg xmlns="http://www.w3.org/2000/svg" xmlns:xlink="http://www.w3.org/1999/xlink" width="458" zoomAndPan="magnify" viewBox="0 0 343.5 89.999999" height="120" preserveAspectRatio="xMidYMid meet" version="1.0"><defs><clipPath id="bf796f0370"><path d="M 112.484375 24 L 150 24 L 150 68 L 112.484375 68 Z M 112.484375 24 " clip-rule="nonzero"/></clipPath><clipPath id="95be1c56ed"><path d="M 331 5 L 342.398438 5 L 342.398438 26 L 331 26 Z M 331 5 " clip-rule="nonzero"/></clipPath><clipPath id="175e86e1c6"><path d="M 0 0.0664062 L 99.605469 0.0664062 L 99.605469 88 L 0 88 Z M 0 0.0664062 " clip-rule="nonzero"/></clipPath><clipPath id="7faf8bb67d"><path d="M 21.898438 14.238281 L 77.316406 14.238281 L 77.316406 74.902344 L 21.898438 74.902344 Z M 21.898438 14.238281 " clip-rule="nonzero"/></clipPath></defs><g clip-path="url(#bf796f0370)"><path fill="#007bff" d="M 149.539062 67.1875 L 141.625 67.1875 L 139.433594 61.535156 L 139.132812 61.535156 C 137.222656 63.941406 135.261719 65.609375 133.246094 66.535156 C 131.222656 67.464844 128.589844 67.929688 125.34375 67.929688 C 121.355469 67.929688 118.214844 66.789062 115.921875 64.511719 C 113.628906 62.230469 112.484375 58.984375 112.484375 54.773438 C 112.484375 50.363281 114.027344 47.109375 117.109375 45.015625 C 120.195312 42.921875 124.847656 41.761719 131.066406 41.539062 L 138.28125 41.320312 L 138.28125 39.496094 C 138.28125 35.285156 136.125 33.179688 131.8125 33.179688 C 128.492188 33.179688 124.589844 34.183594 120.101562 36.1875 L 116.351562 28.53125 C 121.132812 26.03125 126.433594 24.777344 132.257812 24.777344 C 137.832031 24.777344 142.105469 25.992188 145.082031 28.421875 C 148.054688 30.847656 149.539062 34.539062 149.539062 39.496094 Z M 138.28125 51.355469 L 138.28125 47.933594 L 133.890625 48.082031 C 130.597656 48.179688 128.144531 48.777344 126.535156 49.867188 C 124.921875 50.957031 124.117188 52.617188 124.117188 54.84375 C 124.117188 58.042969 125.949219 59.640625 129.617188 59.640625 C 132.246094 59.640625 134.347656 58.886719 135.917969 57.375 C 137.492188 55.863281 138.28125 53.855469 138.28125 51.355469 Z M 138.28125 51.355469 " fill-opacity="1" fill-rule="evenodd"/></g><path fill="#007bff" d="M 156.261719 9.355469 L 167.597656 9.355469 L 167.597656 67.1875 L 156.261719 67.1875 Z M 156.261719 9.355469 " fill-opacity="1" fill-rule="nonzero"/><path fill="#007bff" d="M 174.546875 9.355469 L 185.878906 9.355469 L 185.878906 67.1875 L 174.546875 67.1875 Z M 174.546875 9.355469 " fill-opacity="1" fill-rule="nonzero"/><path fill="#007bff" d="M 230.960938 67.1875 L 222.261719 67.1875 L 220.738281 61.871094 L 220.144531 61.871094 C 218.925781 63.804688 217.207031 65.296875 214.980469 66.351562 C 212.75 67.402344 210.207031 67.929688 207.359375 67.929688 C 202.476562 67.929688 198.796875 66.621094 196.320312 64.007812 C 193.84375 61.394531 192.605469 57.632812 192.605469 52.730469 L 192.605469 25.636719 L 203.9375 25.636719 L 203.9375 49.90625 C 203.9375 52.902344 204.46875 55.148438 205.535156 56.648438 C 206.601562 58.148438 208.300781 58.898438 210.628906 58.898438 C 213.800781 58.898438 216.09375 57.839844 217.503906 55.71875 C 218.917969 53.601562 219.621094 50.089844 219.621094 45.183594 L 219.621094 25.636719 L 230.960938 25.636719 Z M 230.960938 67.1875 " fill-opacity="1" fill-rule="nonzero"/><path fill="#007bff" d="M 275.667969 46.335938 C 275.667969 53.097656 273.882812 58.390625 270.3125 62.207031 C 266.746094 66.023438 261.777344 67.929688 255.40625 67.929688 C 251.417969 67.929688 247.902344 67.058594 244.855469 65.3125 C 241.808594 63.5625 239.464844 61.054688 237.828125 57.785156 C 236.195312 54.511719 235.378906 50.695312 235.378906 46.335938 C 235.378906 39.546875 237.148438 34.269531 240.691406 30.503906 C 244.234375 26.738281 249.214844 24.855469 255.632812 24.855469 C 259.621094 24.855469 263.140625 25.722656 266.1875 27.453125 C 269.234375 29.191406 271.578125 31.679688 273.210938 34.925781 C 274.847656 38.171875 275.667969 41.972656 275.667969 46.335938 Z M 246.9375 46.335938 C 246.9375 50.449219 247.609375 53.558594 248.960938 55.664062 C 250.3125 57.769531 252.507812 58.820312 255.554688 58.820312 C 258.582031 58.820312 260.753906 57.777344 262.078125 55.683594 C 263.40625 53.589844 264.070312 50.472656 264.070312 46.335938 C 264.070312 42.222656 263.398438 39.136719 262.0625 37.082031 C 260.722656 35.027344 258.53125 33.996094 255.484375 33.996094 C 252.460938 33.996094 250.277344 35.019531 248.941406 37.0625 C 247.605469 39.105469 246.9375 42.195312 246.9375 46.335938 Z M 246.9375 46.335938 " fill-opacity="1" fill-rule="evenodd"/><path fill="#007bff" d="M 317.84375 46.335938 C 317.84375 53.097656 316.058594 58.390625 312.492188 62.207031 C 308.925781 66.023438 303.957031 67.929688 297.589844 67.929688 C 293.601562 67.929688 290.082031 67.058594 287.035156 65.3125 C 283.988281 63.5625 281.644531 61.054688 280.007812 57.785156 C 278.375 54.511719 277.558594 50.695312 277.558594 46.335938 C 277.558594 39.546875 279.328125 34.269531 282.871094 30.503906 C 286.414062 26.738281 291.394531 24.855469 297.8125 24.855469 C 301.800781 24.855469 305.320312 25.722656 308.367188 27.453125 C 311.414062 29.191406 313.753906 31.679688 315.390625 34.925781 C 317.027344 38.171875 317.84375 41.972656 317.84375 46.335938 Z M 289.117188 46.335938 C 289.117188 50.449219 289.792969 53.558594 291.140625 55.664062 C 292.492188 57.769531 294.6875 58.820312 297.738281 58.820312 C 300.761719 58.820312 302.933594 57.777344 304.261719 55.683594 C 305.585938 53.589844 306.25 50.472656 306.25 46.335938 C 306.25 42.222656 305.582031 39.136719 304.242188 37.082031 C 302.902344 35.027344 300.710938 33.996094 297.664062 33.996094 C 294.640625 33.996094 292.460938 35.019531 291.121094 37.0625 C 289.785156 39.105469 289.117188 42.195312 289.117188 46.335938 Z M 289.117188 46.335938 " fill-opacity="1" fill-rule="evenodd"/><path fill="#007bff" d="M 317.84375 6.484375 L 328.792969 6.484375 L 327.183594 30.160156 L 319.453125 30.160156 Z M 317.84375 6.484375 " fill-opacity="1" fill-rule="nonzero"/><g clip-path="url(#95be1c56ed)"><path fill="#007bff" d="M 333.621094 5.058594 L 342.539062 7.484375 L 337.417969 25.40625 L 331.117188 23.691406 Z M 333.621094 5.058594 " fill-opacity="1" fill-rule="nonzero"/></g><g clip-path="url(#175e86e1c6)"><path fill="#007bff" d="M 49.617188 0.0742188 C 22.25 0.0742188 0.0664062 18.359375 0.0664062 40.917969 C 0.0664062 52.84375 6.273438 63.574219 16.164062 71.039062 C 19.347656 73.445312 20.414062 77.804688 18.488281 81.300781 C 17.8125 82.523438 16.902344 83.804688 15.671875 85.066406 C 11.605469 89.242188 24.230469 87.453125 33.710938 82.042969 C 35.523438 81.011719 37.617188 80.582031 39.671875 80.929688 C 42.882812 81.472656 46.207031 81.761719 49.617188 81.761719 C 76.980469 81.761719 99.164062 63.476562 99.164062 40.917969 C 99.164062 18.359375 76.980469 0.0742188 49.617188 0.0742188 " fill-opacity="1" fill-rule="nonzero"/></g><g clip-path="url(#7faf8bb67d)"><path fill="#ffffff" d="M 55.25 53.28125 C 55.679688 54.824219 55.875 56.425781 55.871094 58.027344 C 55.804688 61.539062 54.628906 64.90625 53.253906 68.097656 C 53.738281 68.113281 54.21875 68.171875 54.683594 68.3125 C 56.035156 66.304688 57.304688 64.183594 57.898438 61.816406 C 58.300781 60.28125 58.386719 58.617188 57.859375 57.101562 C 57.34375 55.628906 56.417969 54.304688 55.25 53.28125 Z M 36.597656 55.058594 C 35.726562 56.3125 35.191406 57.816406 35.199219 59.351562 C 35.203125 61.214844 35.773438 63.035156 36.578125 64.703125 C 37.167969 65.960938 37.921875 67.128906 38.664062 68.300781 C 39.144531 68.15625 39.640625 68.089844 40.140625 68.085938 C 38.992188 65.414062 37.996094 62.636719 37.679688 59.730469 C 37.414062 57.582031 37.554688 55.378906 38.144531 53.296875 C 37.535156 53.796875 37.042969 54.417969 36.597656 55.058594 M 37.546875 30.03125 C 35.957031 30.648438 34.449219 31.46875 33.035156 32.421875 C 30.476562 34.148438 28.195312 36.257812 26.105469 38.523438 C 25.339844 39.367188 24.550781 40.199219 23.871094 41.113281 C 25.195312 40.703125 26.617188 40.671875 27.964844 40.988281 C 28.394531 40.585938 28.785156 40.144531 29.203125 39.730469 C 31.347656 37.613281 33.78125 35.742188 36.542969 34.503906 C 37.558594 34.082031 38.632812 33.597656 39.761719 33.765625 C 41.03125 33.9375 42.078125 34.789062 42.878906 35.738281 C 43.882812 36.945312 44.648438 38.339844 45.222656 39.792969 C 44.101562 39.992188 43.011719 40.339844 41.980469 40.8125 C 39.347656 42.046875 37.246094 44.191406 35.675781 46.605469 C 39.59375 48.90625 44.144531 50.347656 48.722656 50.03125 C 52.398438 49.765625 55.9375 48.46875 59.117188 46.640625 C 58.675781 45.839844 58.085938 45.136719 57.503906 44.433594 C 55.488281 42.046875 52.683594 40.234375 49.558594 39.78125 C 50 38.546875 50.628906 37.386719 51.386719 36.324219 C 51.996094 35.5 52.714844 34.722656 53.617188 34.214844 C 54.46875 33.734375 55.511719 33.585938 56.445312 33.878906 C 57.632812 34.257812 58.757812 34.789062 59.835938 35.40625 C 62.40625 36.890625 64.675781 38.851562 66.710938 41 C 68.097656 40.699219 69.5625 40.675781 70.921875 41.109375 C 69.527344 39.433594 68.03125 37.84375 66.476562 36.316406 C 64.058594 34.003906 61.382812 31.898438 58.328125 30.488281 C 57.386719 30.054688 56.390625 29.664062 55.335938 29.652344 C 54.070312 29.589844 52.820312 30.042969 51.828125 30.8125 C 50.773438 31.632812 49.96875 32.726562 49.332031 33.890625 C 48.476562 35.425781 47.878906 37.089844 47.386719 38.773438 C 46.824219 36.8125 46.0625 34.898438 44.976562 33.164062 C 44.21875 31.976562 43.238281 30.875 41.964844 30.226562 C 40.617188 29.519531 38.960938 29.480469 37.546875 30.03125 M 59.964844 19.691406 C 58.769531 20.511719 57.601562 21.40625 56.640625 22.496094 C 57.207031 22.445312 57.773438 22.351562 58.339844 22.4375 C 59.265625 22.539062 60.132812 23.039062 60.699219 23.773438 C 61.390625 24.671875 61.636719 25.839844 61.621094 26.957031 C 62.507812 25.578125 63.304688 24.121094 63.78125 22.546875 C 64.023438 21.683594 64.222656 20.742188 63.925781 19.867188 C 63.710938 19.230469 63.117188 18.699219 62.425781 18.695312 C 61.496094 18.636719 60.714844 19.226562 59.964844 19.691406 M 31.464844 18.957031 C 31.011719 19.253906 30.738281 19.765625 30.667969 20.296875 C 30.542969 21.1875 30.769531 22.082031 31.039062 22.929688 C 31.503906 24.355469 32.226562 25.691406 33.109375 26.898438 C 33.1875 26.101562 33.238281 25.28125 33.574219 24.542969 C 33.964844 23.644531 34.726562 22.898438 35.667969 22.601562 C 36.445312 22.332031 37.277344 22.394531 38.078125 22.503906 C 37.265625 21.585938 36.308594 20.796875 35.320312 20.070312 C 34.703125 19.640625 34.089844 19.1875 33.394531 18.882812 C 32.789062 18.628906 32.035156 18.578125 31.464844 18.957031 M 28.960938 14.585938 C 30.429688 14.238281 31.941406 14.703125 33.273438 15.316406 C 35.613281 16.402344 37.675781 17.988281 39.570312 19.71875 C 40.679688 19.089844 41.894531 18.648438 43.15625 18.480469 C 42.824219 18.804688 42.441406 19.097656 42.238281 19.53125 C 41.921875 20.136719 41.933594 20.835938 41.949219 21.503906 C 43.613281 19.042969 46.195312 17.34375 48.945312 16.3125 C 49.796875 16 50.671875 15.742188 51.558594 15.535156 C 50.226562 16.820312 49.226562 18.550781 49.203125 20.441406 C 50.371094 19.230469 52.003906 18.632812 53.632812 18.375 C 53.496094 18.535156 53.355469 18.695312 53.214844 18.855469 C 53.925781 19.054688 54.605469 19.347656 55.246094 19.714844 C 56.542969 18.503906 57.90625 17.34375 59.417969 16.410156 C 60.785156 15.5625 62.246094 14.78125 63.847656 14.527344 C 64.867188 14.347656 65.960938 14.523438 66.84375 15.078125 C 67.824219 15.695312 68.515625 16.714844 68.808594 17.828125 C 69.253906 19.398438 68.933594 21.058594 68.417969 22.570312 C 67.554688 25 66.152344 27.203125 64.546875 29.210938 C 66.765625 31.890625 68.664062 34.824219 70.472656 37.792969 C 71.246094 39.125 72.042969 40.449219 72.734375 41.824219 C 70.949219 41.707031 69.121094 41.902344 67.476562 42.644531 C 67.949219 43.058594 68.4375 43.453125 68.867188 43.90625 C 66.605469 43.992188 64.390625 44.664062 62.371094 45.664062 C 64.742188 48.617188 66.183594 52.355469 66.136719 56.160156 C 70.222656 56.183594 74.375 54.535156 77.105469 51.453125 C 77.320312 52.210938 77.296875 53.003906 77.308594 53.78125 C 77.324219 55.492188 77.058594 57.203125 76.5625 58.839844 C 76.183594 60.054688 75.722656 61.253906 75.058594 62.339844 C 75.523438 62.121094 76 61.929688 76.46875 61.71875 C 74.710938 64.886719 71.925781 67.417969 68.722656 69.078125 C 69.265625 69.214844 69.824219 69.296875 70.371094 69.425781 C 69.339844 70.230469 68.179688 70.851562 66.980469 71.367188 C 65.417969 72.015625 63.773438 72.46875 62.085938 72.636719 C 60.769531 72.753906 59.417969 72.757812 58.132812 72.410156 C 57.84375 72.335938 57.558594 72.257812 57.269531 72.183594 C 56.835938 73.183594 56.042969 74.03125 55.023438 74.4375 C 53.539062 75.070312 51.664062 74.671875 50.628906 73.410156 C 50.460938 73.238281 50.34375 72.925781 50.050781 72.964844 C 48.164062 72.976562 46.273438 73.039062 44.382812 73.058594 C 43.960938 73.074219 43.53125 73.019531 43.109375 73.089844 C 42.703125 73.5 42.320312 73.957031 41.796875 74.230469 C 40.671875 74.886719 39.199219 74.894531 38.0625 74.261719 C 37.269531 73.8125 36.589844 73.117188 36.28125 72.246094 C 33.207031 72.207031 30.152344 71.035156 27.851562 68.992188 C 26.589844 67.878906 25.601562 66.460938 24.949219 64.914062 C 24.304688 63.390625 24.019531 61.738281 23.929688 60.097656 C 23.777344 56.078125 24.828125 52.050781 26.789062 48.554688 C 27.597656 47.097656 28.585938 45.742188 29.738281 44.539062 C 28.523438 44.125 27.246094 43.960938 25.96875 43.9375 C 26.417969 43.488281 26.902344 43.074219 27.378906 42.660156 C 25.683594 41.855469 23.757812 41.699219 21.910156 41.863281 C 22.550781 40.554688 23.269531 39.28125 23.996094 38.015625 C 25.804688 34.933594 27.738281 31.894531 30.105469 29.203125 C 29.742188 28.648438 29.300781 28.144531 28.925781 27.597656 C 27.460938 25.554688 26.21875 23.28125 25.753906 20.789062 C 25.5 19.332031 25.601562 17.726562 26.414062 16.457031 C 26.984375 15.539062 27.898438 14.824219 28.960938 14.585938 " fill-opacity="1" fill-rule="nonzero"/><path fill="#ffffff" d="M 32.433594 18.6875 C 32.429688 18.6875 32.421875 18.6875 32.417969 18.6875 C 32.054688 18.691406 31.738281 18.78125 31.46875 18.960938 C 31.042969 19.238281 30.746094 19.734375 30.671875 20.296875 C 30.546875 21.1875 30.777344 22.089844 31.042969 22.929688 C 31.484375 24.285156 32.179688 25.621094 33.109375 26.886719 C 33.113281 26.824219 33.121094 26.761719 33.125 26.699219 C 33.195312 25.972656 33.265625 25.21875 33.570312 24.539062 C 33.972656 23.609375 34.757812 22.886719 35.664062 22.597656 C 36.441406 22.328125 37.277344 22.390625 38.066406 22.5 C 37.371094 21.710938 36.496094 20.941406 35.316406 20.074219 C 35.25 20.027344 35.1875 19.980469 35.121094 19.933594 C 34.574219 19.554688 34.011719 19.160156 33.394531 18.886719 C 33.082031 18.757812 32.75 18.6875 32.433594 18.6875 Z M 33.113281 26.914062 L 33.109375 26.902344 C 32.175781 25.628906 31.476562 24.292969 31.035156 22.929688 C 30.765625 22.089844 30.539062 21.191406 30.664062 20.292969 C 30.738281 19.730469 31.039062 19.230469 31.464844 18.953125 C 31.734375 18.773438 32.054688 18.679688 32.417969 18.679688 C 32.421875 18.679688 32.429688 18.675781 32.433594 18.675781 C 32.75 18.675781 33.082031 18.746094 33.398438 18.878906 C 34.015625 19.152344 34.582031 19.546875 35.125 19.929688 C 35.191406 19.972656 35.257812 20.019531 35.324219 20.066406 C 36.507812 20.9375 37.382812 21.710938 38.082031 22.503906 L 38.089844 22.511719 L 38.078125 22.511719 C 37.285156 22.398438 36.445312 22.332031 35.667969 22.605469 C 34.761719 22.894531 33.980469 23.617188 33.578125 24.542969 C 33.273438 25.222656 33.203125 25.972656 33.136719 26.699219 C 33.128906 26.765625 33.121094 26.832031 33.117188 26.902344 Z M 57.84375 22.398438 C 58.011719 22.398438 58.175781 22.410156 58.34375 22.433594 C 58.792969 22.480469 59.25 22.632812 59.65625 22.863281 C 60.0625 23.09375 60.421875 23.410156 60.703125 23.773438 C 61.484375 24.789062 61.636719 26.054688 61.625 26.941406 C 62.6875 25.289062 63.371094 23.894531 63.773438 22.546875 C 64.023438 21.664062 64.214844 20.734375 63.921875 19.871094 C 63.816406 19.550781 63.613281 19.261719 63.351562 19.046875 C 63.074219 18.824219 62.753906 18.703125 62.425781 18.699219 C 62.382812 18.695312 62.339844 18.695312 62.296875 18.695312 C 61.535156 18.695312 60.878906 19.117188 60.238281 19.523438 C 60.148438 19.578125 60.058594 19.636719 59.96875 19.695312 C 58.898438 20.429688 57.671875 21.335938 56.652344 22.492188 C 56.757812 22.480469 56.863281 22.46875 56.96875 22.457031 C 57.253906 22.429688 57.550781 22.398438 57.84375 22.398438 Z M 61.617188 26.972656 L 61.617188 26.957031 C 61.628906 26.070312 61.480469 24.796875 60.695312 23.777344 C 60.414062 23.414062 60.054688 23.101562 59.652344 22.871094 C 59.246094 22.640625 58.792969 22.492188 58.339844 22.441406 C 57.882812 22.371094 57.417969 22.421875 56.96875 22.46875 C 56.863281 22.480469 56.75 22.492188 56.640625 22.5 L 56.632812 22.5 L 56.636719 22.492188 C 57.660156 21.332031 58.890625 20.421875 59.960938 19.6875 C 60.050781 19.632812 60.144531 19.574219 60.234375 19.515625 C 60.90625 19.085938 61.605469 18.640625 62.425781 18.691406 C 62.753906 18.691406 63.078125 18.816406 63.359375 19.039062 C 63.621094 19.253906 63.824219 19.546875 63.929688 19.867188 C 64.222656 20.730469 64.035156 21.667969 63.785156 22.546875 C 63.378906 23.898438 62.691406 25.300781 61.625 26.957031 Z M 35.683594 46.605469 C 37.726562 47.804688 39.835938 48.710938 41.953125 49.296875 C 44.253906 49.933594 46.53125 50.179688 48.722656 50.027344 C 50.484375 49.898438 52.296875 49.527344 54.105469 48.917969 C 55.773438 48.355469 57.457031 47.589844 59.113281 46.636719 C 58.691406 45.875 58.125 45.191406 57.574219 44.527344 L 57.5 44.4375 C 56.992188 43.835938 56.4375 43.273438 55.847656 42.769531 C 55.246094 42.25 54.605469 41.785156 53.945312 41.386719 C 52.542969 40.542969 51.070312 40.003906 49.558594 39.785156 L 49.554688 39.78125 L 49.554688 39.777344 C 49.976562 38.597656 50.589844 37.433594 51.382812 36.320312 C 52.125 35.320312 52.835938 34.648438 53.617188 34.210938 C 54.039062 33.96875 54.519531 33.8125 55 33.75 C 55.496094 33.6875 55.996094 33.734375 56.449219 33.875 C 57.535156 34.222656 58.644531 34.71875 59.839844 35.402344 C 62.183594 36.757812 64.429688 38.585938 66.714844 40.996094 C 67.390625 40.847656 68.058594 40.773438 68.703125 40.773438 C 68.742188 40.773438 68.785156 40.773438 68.828125 40.777344 C 69.5625 40.785156 70.261719 40.894531 70.910156 41.101562 C 69.601562 39.53125 68.152344 37.964844 66.472656 36.320312 C 65.144531 35.046875 63.890625 33.984375 62.636719 33.066406 C 61.1875 32.003906 59.777344 31.160156 58.328125 30.492188 C 57.398438 30.066406 56.390625 29.667969 55.335938 29.660156 C 55.253906 29.65625 55.175781 29.652344 55.09375 29.652344 C 54.558594 29.652344 54.015625 29.742188 53.480469 29.925781 C 52.886719 30.125 52.332031 30.425781 51.828125 30.816406 C 50.882812 31.554688 50.066406 32.558594 49.335938 33.890625 C 48.59375 35.21875 47.976562 36.769531 47.390625 38.773438 L 47.386719 38.789062 L 47.382812 38.773438 C 46.753906 36.585938 45.964844 34.753906 44.972656 33.167969 C 44.5625 32.523438 44.121094 31.960938 43.660156 31.496094 C 43.132812 30.960938 42.5625 30.535156 41.964844 30.230469 C 40.652344 29.542969 39 29.46875 37.550781 30.035156 C 36.039062 30.621094 34.523438 31.425781 33.039062 32.421875 C 30.714844 33.992188 28.449219 35.988281 26.109375 38.527344 C 25.988281 38.660156 25.863281 38.792969 25.746094 38.925781 C 25.109375 39.621094 24.453125 40.339844 23.882812 41.105469 C 25.183594 40.707031 26.59375 40.664062 27.964844 40.984375 C 28.210938 40.753906 28.445312 40.507812 28.671875 40.269531 C 28.84375 40.089844 29.019531 39.90625 29.199219 39.726562 C 30.332031 38.609375 31.488281 37.621094 32.640625 36.785156 C 33.914062 35.859375 35.226562 35.089844 36.539062 34.5 C 36.589844 34.476562 36.640625 34.457031 36.691406 34.4375 C 37.675781 34.027344 38.6875 33.601562 39.765625 33.761719 C 40.847656 33.90625 41.898438 34.570312 42.882812 35.734375 C 43.820312 36.863281 44.609375 38.226562 45.226562 39.792969 L 45.230469 39.796875 L 45.222656 39.800781 C 44.121094 39.992188 43.027344 40.335938 41.980469 40.816406 C 40.726562 41.40625 39.535156 42.230469 38.433594 43.269531 C 37.433594 44.214844 36.507812 45.335938 35.683594 46.605469 Z M 47.453125 50.078125 C 45.65625 50.078125 43.8125 49.820312 41.949219 49.304688 C 39.832031 48.71875 37.722656 47.8125 35.671875 46.609375 L 35.667969 46.605469 L 35.671875 46.601562 C 36.496094 45.332031 37.425781 44.210938 38.425781 43.265625 C 39.527344 42.222656 40.722656 41.398438 41.976562 40.808594 C 43.023438 40.328125 44.113281 39.984375 45.21875 39.792969 C 44.601562 38.230469 43.8125 36.867188 42.878906 35.742188 C 41.894531 34.578125 40.847656 33.917969 39.761719 33.769531 C 38.691406 33.609375 37.675781 34.035156 36.695312 34.445312 C 36.644531 34.464844 36.59375 34.484375 36.542969 34.507812 C 35.230469 35.097656 33.917969 35.863281 32.644531 36.792969 C 31.492188 37.625 30.335938 38.617188 29.207031 39.734375 C 29.027344 39.910156 28.847656 40.097656 28.679688 40.277344 C 28.449219 40.515625 28.214844 40.761719 27.96875 40.992188 L 27.964844 40.992188 C 26.59375 40.671875 25.175781 40.714844 23.871094 41.117188 L 23.859375 41.121094 L 23.867188 41.109375 C 24.441406 40.339844 25.101562 39.617188 25.738281 38.917969 C 25.859375 38.789062 25.980469 38.652344 26.101562 38.519531 C 28.445312 35.980469 30.710938 33.984375 33.03125 32.417969 C 34.515625 31.417969 36.035156 30.613281 37.546875 30.027344 C 39 29.460938 40.652344 29.535156 41.96875 30.222656 C 42.566406 30.527344 43.136719 30.953125 43.667969 31.488281 C 44.125 31.957031 44.570312 32.519531 44.980469 33.164062 C 45.972656 34.746094 46.757812 36.574219 47.386719 38.757812 C 47.972656 36.757812 48.589844 35.210938 49.328125 33.886719 C 50.058594 32.554688 50.875 31.546875 51.824219 30.808594 C 52.328125 30.417969 52.886719 30.117188 53.476562 29.917969 C 54.09375 29.707031 54.71875 29.617188 55.335938 29.648438 C 56.390625 29.660156 57.398438 30.054688 58.332031 30.484375 C 59.78125 31.152344 61.191406 31.996094 62.644531 33.058594 C 63.894531 33.976562 65.148438 35.039062 66.480469 36.3125 C 68.160156 37.964844 69.617188 39.53125 70.925781 41.105469 L 70.9375 41.117188 L 70.921875 41.113281 C 70.269531 40.90625 69.566406 40.796875 68.828125 40.785156 C 68.785156 40.785156 68.742188 40.785156 68.703125 40.785156 C 68.058594 40.785156 67.390625 40.859375 66.710938 41.003906 L 66.707031 41.003906 C 64.425781 38.59375 62.179688 36.765625 59.832031 35.410156 C 58.640625 34.730469 57.53125 34.230469 56.445312 33.882812 C 55.992188 33.742188 55.496094 33.699219 55 33.761719 C 54.519531 33.820312 54.042969 33.980469 53.621094 34.21875 C 52.84375 34.65625 52.132812 35.324219 51.386719 36.324219 C 50.601562 37.4375 49.988281 38.597656 49.566406 39.777344 C 51.074219 39.996094 52.546875 40.535156 53.949219 41.378906 C 54.613281 41.777344 55.253906 42.242188 55.855469 42.761719 C 56.445312 43.269531 57 43.832031 57.507812 44.433594 L 57.582031 44.523438 C 58.132812 45.183594 58.699219 45.871094 59.121094 46.636719 L 59.125 46.640625 L 59.121094 46.644531 C 57.464844 47.597656 55.777344 48.363281 54.109375 48.925781 C 52.300781 49.535156 50.488281 49.90625 48.722656 50.035156 C 48.304688 50.0625 47.878906 50.078125 47.453125 50.078125 Z M 36.601562 55.0625 C 36.15625 55.699219 35.8125 56.386719 35.574219 57.101562 C 35.324219 57.847656 35.199219 58.601562 35.203125 59.351562 C 35.207031 60.234375 35.335938 61.15625 35.59375 62.101562 C 35.820312 62.941406 36.15625 63.816406 36.582031 64.703125 C 37.136719 65.890625 37.851562 67.011719 38.542969 68.101562 L 38.667969 68.296875 C 39.125 68.160156 39.617188 68.085938 40.132812 68.082031 C 39.46875 66.53125 38.976562 65.234375 38.59375 63.996094 C 38.125 62.484375 37.824219 61.085938 37.675781 59.730469 C 37.542969 58.648438 37.511719 57.558594 37.585938 56.488281 C 37.664062 55.398438 37.847656 54.328125 38.136719 53.308594 C 37.484375 53.847656 36.972656 54.527344 36.601562 55.0625 Z M 38.664062 68.304688 L 38.660156 68.304688 L 38.535156 68.105469 C 37.84375 67.015625 37.128906 65.894531 36.574219 64.707031 C 36.144531 63.816406 35.8125 62.941406 35.585938 62.101562 C 35.328125 61.160156 35.195312 60.234375 35.195312 59.351562 C 35.191406 58.601562 35.316406 57.84375 35.566406 57.097656 C 35.804688 56.382812 36.148438 55.695312 36.59375 55.054688 C 36.96875 54.519531 37.480469 53.832031 38.140625 53.292969 L 38.152344 53.285156 L 38.148438 53.296875 C 37.859375 54.320312 37.671875 55.394531 37.59375 56.488281 C 37.519531 57.558594 37.550781 58.648438 37.683594 59.726562 C 37.832031 61.085938 38.132812 62.480469 38.601562 63.996094 C 38.988281 65.234375 39.476562 66.53125 40.144531 68.085938 L 40.148438 68.089844 L 40.140625 68.089844 C 39.621094 68.09375 39.125 68.167969 38.667969 68.304688 Z M 53.261719 68.09375 C 53.789062 68.109375 54.253906 68.179688 54.679688 68.304688 C 55.507812 67.082031 56.089844 66.121094 56.570312 65.199219 C 57.1875 64.011719 57.621094 62.90625 57.890625 61.816406 C 58.105469 61.003906 58.21875 60.207031 58.222656 59.453125 C 58.230469 58.613281 58.105469 57.820312 57.855469 57.101562 C 57.601562 56.375 57.242188 55.679688 56.796875 55.023438 C 56.359375 54.386719 55.839844 53.804688 55.257812 53.292969 C 55.671875 54.78125 55.878906 56.375 55.875 58.027344 C 55.84375 59.65625 55.574219 61.34375 55.054688 63.183594 C 54.644531 64.644531 54.074219 66.203125 53.261719 68.09375 Z M 54.683594 68.316406 C 54.253906 68.1875 53.785156 68.117188 53.253906 68.101562 L 53.246094 68.101562 L 53.25 68.09375 C 54.0625 66.207031 54.636719 64.644531 55.046875 63.179688 C 55.566406 61.339844 55.835938 59.65625 55.863281 58.027344 C 55.871094 56.371094 55.664062 54.773438 55.246094 53.28125 L 55.242188 53.265625 L 55.25 53.277344 C 55.839844 53.792969 56.363281 54.378906 56.800781 55.019531 C 57.25 55.671875 57.609375 56.375 57.863281 57.097656 C 58.113281 57.820312 58.238281 58.609375 58.230469 59.453125 C 58.226562 60.207031 58.113281 61.003906 57.902344 61.816406 C 57.628906 62.910156 57.195312 64.015625 56.578125 65.203125 C 56.097656 66.125 55.515625 67.085938 54.6875 68.3125 Z M 50.101562 72.957031 C 50.289062 72.957031 50.398438 73.109375 50.507812 73.253906 C 50.546875 73.308594 50.589844 73.363281 50.632812 73.410156 C 51.128906 74.011719 51.847656 74.445312 52.65625 74.628906 C 53.457031 74.8125 54.296875 74.742188 55.019531 74.433594 C 55.996094 74.042969 56.8125 73.222656 57.265625 72.183594 L 57.265625 72.179688 L 57.269531 72.179688 C 57.433594 72.222656 57.601562 72.265625 57.765625 72.308594 C 57.886719 72.339844 58.011719 72.375 58.132812 72.40625 C 59.234375 72.703125 60.488281 72.777344 62.085938 72.632812 C 63.691406 72.472656 65.339844 72.042969 66.980469 71.363281 C 68.34375 70.773438 69.449219 70.140625 70.359375 69.425781 C 70.109375 69.367188 69.851562 69.320312 69.605469 69.269531 C 69.3125 69.214844 69.011719 69.15625 68.722656 69.085938 L 68.710938 69.082031 L 68.71875 69.074219 C 70.347656 68.230469 71.832031 67.183594 73.132812 65.960938 C 74.480469 64.695312 75.601562 63.269531 76.460938 61.726562 C 76.265625 61.816406 76.0625 61.902344 75.871094 61.984375 C 75.601562 62.101562 75.328125 62.21875 75.058594 62.34375 L 75.046875 62.351562 L 75.054688 62.339844 C 75.628906 61.398438 76.105469 60.285156 76.558594 58.839844 C 77.070312 57.148438 77.320312 55.445312 77.304688 53.78125 C 77.300781 53.6875 77.300781 53.597656 77.300781 53.503906 C 77.296875 52.828125 77.289062 52.125 77.105469 51.464844 C 76.433594 52.214844 75.664062 52.902344 74.816406 53.496094 C 73.988281 54.074219 73.085938 54.574219 72.128906 54.976562 C 70.277344 55.753906 68.238281 56.164062 66.222656 56.164062 C 66.195312 56.164062 66.167969 56.164062 66.136719 56.164062 L 66.132812 56.164062 L 66.132812 56.160156 C 66.15625 54.296875 65.828125 52.425781 65.15625 50.59375 C 64.835938 49.710938 64.433594 48.84375 63.960938 48.015625 C 63.496094 47.195312 62.960938 46.402344 62.367188 45.667969 L 62.367188 45.660156 L 62.371094 45.660156 C 63.417969 45.140625 64.480469 44.730469 65.527344 44.4375 C 66.652344 44.125 67.769531 43.945312 68.855469 43.902344 C 68.519531 43.550781 68.144531 43.226562 67.78125 42.914062 C 67.679688 42.828125 67.574219 42.738281 67.472656 42.648438 L 67.46875 42.644531 L 67.476562 42.640625 C 68.972656 41.964844 70.738281 41.6875 72.726562 41.820312 C 72.15625 40.6875 71.507812 39.574219 70.878906 38.5 C 70.742188 38.269531 70.605469 38.03125 70.46875 37.796875 C 68.839844 35.125 66.863281 32.015625 64.542969 29.214844 L 64.539062 29.210938 L 64.542969 29.207031 C 66.378906 26.910156 67.644531 24.738281 68.414062 22.566406 C 68.707031 21.707031 68.890625 20.941406 68.96875 20.21875 C 69.066406 19.355469 69.007812 18.550781 68.804688 17.832031 C 68.5 16.679688 67.785156 15.675781 66.839844 15.082031 C 65.992188 14.546875 64.902344 14.347656 63.847656 14.53125 C 63.109375 14.648438 62.355469 14.882812 61.546875 15.25 C 60.910156 15.539062 60.253906 15.898438 59.421875 16.414062 C 57.761719 17.441406 56.320312 18.71875 55.25 19.71875 L 55.242188 19.71875 C 54.585938 19.34375 53.902344 19.054688 53.214844 18.859375 L 53.207031 18.855469 L 53.210938 18.851562 C 53.257812 18.800781 53.300781 18.75 53.347656 18.699219 C 53.4375 18.59375 53.53125 18.488281 53.621094 18.382812 C 52.746094 18.519531 51.945312 18.746094 51.246094 19.054688 C 50.441406 19.410156 49.753906 19.875 49.203125 20.441406 L 49.199219 20.449219 L 49.199219 20.441406 C 49.207031 19.542969 49.441406 18.640625 49.886719 17.757812 C 50.285156 16.964844 50.84375 16.222656 51.542969 15.546875 C 50.648438 15.75 49.773438 16.011719 48.945312 16.320312 C 46.816406 17.117188 43.875 18.664062 41.953125 21.503906 L 41.945312 21.515625 L 41.945312 21.503906 C 41.929688 20.863281 41.914062 20.140625 42.234375 19.527344 C 42.394531 19.183594 42.675781 18.921875 42.949219 18.671875 C 43.011719 18.609375 43.082031 18.546875 43.144531 18.484375 C 41.9375 18.648438 40.734375 19.066406 39.574219 19.722656 L 39.570312 19.722656 C 37.320312 17.671875 35.320312 16.273438 33.273438 15.320312 C 32.496094 14.964844 31.808594 14.726562 31.167969 14.59375 C 30.363281 14.429688 29.644531 14.429688 28.960938 14.589844 C 27.945312 14.816406 27.015625 15.496094 26.417969 16.457031 C 26.035156 17.054688 25.789062 17.761719 25.6875 18.554688 C 25.597656 19.253906 25.621094 20.003906 25.757812 20.785156 C 25.976562 21.949219 26.382812 23.152344 26.96875 24.359375 C 27.476562 25.402344 28.117188 26.460938 28.929688 27.59375 C 29.097656 27.84375 29.285156 28.085938 29.464844 28.320312 C 29.683594 28.601562 29.910156 28.898438 30.109375 29.203125 L 30.113281 29.203125 L 30.109375 29.207031 C 27.628906 32.027344 25.628906 35.246094 24 38.019531 C 23.191406 39.425781 22.523438 40.617188 21.917969 41.855469 C 24.039062 41.671875 25.875 41.941406 27.382812 42.65625 L 27.386719 42.660156 L 27.382812 42.664062 C 27.332031 42.707031 27.28125 42.75 27.234375 42.792969 C 26.8125 43.15625 26.378906 43.53125 25.980469 43.933594 C 27.394531 43.957031 28.625 44.15625 29.738281 44.535156 L 29.746094 44.535156 L 29.742188 44.539062 C 28.605469 45.730469 27.613281 47.078125 26.792969 48.554688 C 25.804688 50.316406 25.058594 52.195312 24.570312 54.132812 C 24.074219 56.113281 23.859375 58.121094 23.9375 60.09375 C 24.035156 61.949219 24.367188 63.523438 24.953125 64.910156 C 25.621094 66.492188 26.621094 67.902344 27.851562 68.988281 C 28.421875 69.496094 29.046875 69.953125 29.710938 70.351562 C 30.363281 70.75 31.058594 71.089844 31.777344 71.367188 C 32.496094 71.644531 33.242188 71.859375 33.992188 72.003906 C 34.75 72.152344 35.519531 72.230469 36.28125 72.242188 L 36.285156 72.242188 C 36.570312 73.054688 37.203125 73.773438 38.066406 74.257812 C 38.613281 74.566406 39.246094 74.726562 39.898438 74.726562 C 39.910156 74.726562 39.921875 74.726562 39.933594 74.726562 C 40.601562 74.71875 41.242188 74.546875 41.792969 74.226562 C 42.222656 74 42.558594 73.652344 42.886719 73.3125 C 42.960938 73.238281 43.035156 73.160156 43.109375 73.085938 C 43.378906 73.039062 43.660156 73.046875 43.929688 73.054688 C 44.078125 73.054688 44.234375 73.058594 44.382812 73.054688 C 45.25 73.046875 46.128906 73.027344 46.976562 73.011719 C 47.984375 72.988281 49.027344 72.96875 50.050781 72.960938 C 50.070312 72.960938 50.085938 72.957031 50.101562 72.957031 Z M 53.542969 74.738281 C 53.246094 74.738281 52.949219 74.707031 52.65625 74.640625 C 51.84375 74.453125 51.121094 74.019531 50.628906 73.414062 C 50.582031 73.367188 50.539062 73.3125 50.5 73.257812 C 50.394531 73.113281 50.285156 72.96875 50.101562 72.96875 C 50.085938 72.96875 50.070312 72.96875 50.050781 72.96875 C 49.027344 72.976562 47.984375 73 46.976562 73.019531 C 46.128906 73.035156 45.25 73.054688 44.382812 73.0625 C 44.234375 73.070312 44.078125 73.066406 43.929688 73.0625 C 43.660156 73.054688 43.382812 73.046875 43.113281 73.09375 C 43.039062 73.167969 42.964844 73.242188 42.894531 73.316406 C 42.566406 73.65625 42.226562 74.007812 41.796875 74.234375 C 41.246094 74.554688 40.601562 74.726562 39.933594 74.734375 C 39.921875 74.734375 39.910156 74.734375 39.898438 74.734375 C 39.246094 74.734375 38.609375 74.574219 38.0625 74.265625 C 37.199219 73.777344 36.566406 73.0625 36.277344 72.25 C 35.519531 72.238281 34.746094 72.160156 33.988281 72.011719 C 33.238281 71.867188 32.492188 71.652344 31.773438 71.375 C 31.054688 71.097656 30.359375 70.757812 29.703125 70.359375 C 29.042969 69.960938 28.417969 69.5 27.847656 68.996094 C 26.617188 67.90625 25.613281 66.496094 24.945312 64.914062 C 24.359375 63.527344 24.023438 61.949219 23.925781 60.097656 C 23.851562 58.121094 24.0625 56.113281 24.5625 54.128906 C 25.046875 52.191406 25.796875 50.316406 26.785156 48.550781 C 27.605469 47.078125 28.597656 45.726562 29.730469 44.539062 C 28.613281 44.164062 27.382812 43.96875 25.96875 43.941406 L 25.957031 43.941406 L 25.964844 43.933594 C 26.367188 43.53125 26.804688 43.152344 27.226562 42.789062 C 27.273438 42.746094 27.324219 42.703125 27.371094 42.660156 C 25.867188 41.949219 24.03125 41.679688 21.910156 41.867188 L 21.902344 41.867188 L 21.90625 41.859375 C 22.515625 40.617188 23.179688 39.425781 23.992188 38.015625 C 25.621094 35.238281 27.617188 32.023438 30.101562 29.203125 C 29.902344 28.898438 29.675781 28.609375 29.457031 28.324219 C 29.277344 28.089844 29.089844 27.847656 28.921875 27.601562 C 28.109375 26.464844 27.46875 25.40625 26.960938 24.363281 C 26.375 23.15625 25.964844 21.953125 25.75 20.789062 C 25.613281 20.003906 25.589844 19.253906 25.679688 18.550781 C 25.78125 17.757812 26.027344 17.050781 26.410156 16.453125 C 27.011719 15.492188 27.941406 14.808594 28.960938 14.582031 C 29.640625 14.421875 30.363281 14.421875 31.167969 14.585938 C 31.8125 14.71875 32.5 14.957031 33.277344 15.3125 C 35.324219 16.265625 37.324219 17.664062 39.574219 19.714844 C 40.738281 19.054688 41.945312 18.636719 43.15625 18.476562 L 43.171875 18.472656 L 43.160156 18.484375 C 43.09375 18.546875 43.023438 18.613281 42.953125 18.679688 C 42.683594 18.929688 42.402344 19.1875 42.242188 19.53125 C 41.925781 20.140625 41.9375 20.855469 41.953125 21.488281 C 43.875 18.65625 46.816406 17.109375 48.941406 16.308594 C 49.777344 16 50.65625 15.738281 51.558594 15.53125 L 51.574219 15.527344 L 51.5625 15.539062 C 50.859375 16.21875 50.296875 16.964844 49.894531 17.761719 C 49.449219 18.636719 49.21875 19.535156 49.207031 20.429688 C 49.753906 19.863281 50.4375 19.398438 51.242188 19.046875 C 51.945312 18.738281 52.75 18.511719 53.632812 18.371094 L 53.644531 18.371094 L 53.632812 18.378906 C 53.542969 18.488281 53.445312 18.597656 53.351562 18.703125 C 53.308594 18.753906 53.265625 18.800781 53.222656 18.851562 C 53.910156 19.046875 54.589844 19.335938 55.246094 19.707031 C 56.316406 18.710938 57.757812 17.433594 59.417969 16.40625 C 60.25 15.890625 60.90625 15.53125 61.542969 15.242188 C 62.351562 14.875 63.105469 14.640625 63.847656 14.523438 C 64.902344 14.339844 65.996094 14.539062 66.84375 15.074219 C 67.792969 15.671875 68.511719 16.671875 68.8125 17.828125 C 69.019531 18.550781 69.074219 19.355469 68.976562 20.222656 C 68.898438 20.941406 68.714844 21.710938 68.421875 22.570312 C 67.652344 24.742188 66.386719 26.914062 64.550781 29.210938 C 66.871094 32.011719 68.847656 35.121094 70.476562 37.792969 C 70.613281 38.027344 70.75 38.265625 70.886719 38.496094 C 71.515625 39.574219 72.167969 40.6875 72.738281 41.824219 L 72.742188 41.832031 L 72.734375 41.832031 C 70.746094 41.695312 68.980469 41.972656 67.484375 42.648438 C 67.585938 42.734375 67.6875 42.824219 67.785156 42.90625 C 68.152344 43.222656 68.53125 43.546875 68.871094 43.902344 L 68.878906 43.910156 L 68.867188 43.910156 C 67.777344 43.953125 66.65625 44.132812 65.53125 44.445312 C 64.484375 44.738281 63.421875 45.148438 62.378906 45.664062 C 62.96875 46.402344 63.503906 47.191406 63.96875 48.011719 C 64.441406 48.839844 64.84375 49.707031 65.164062 50.589844 C 65.835938 52.421875 66.164062 54.296875 66.144531 56.15625 C 66.167969 56.15625 66.195312 56.15625 66.222656 56.15625 C 68.234375 56.15625 70.277344 55.746094 72.128906 54.964844 C 73.082031 54.566406 73.984375 54.066406 74.8125 53.488281 C 75.664062 52.890625 76.433594 52.207031 77.101562 51.453125 L 77.109375 51.445312 L 77.109375 51.453125 C 77.296875 52.121094 77.304688 52.824219 77.308594 53.503906 C 77.3125 53.597656 77.3125 53.6875 77.3125 53.78125 C 77.328125 55.445312 77.078125 57.148438 76.570312 58.84375 C 76.117188 60.285156 75.640625 61.390625 75.070312 62.332031 C 75.332031 62.207031 75.605469 62.089844 75.867188 61.976562 C 76.0625 61.890625 76.269531 61.804688 76.46875 61.714844 L 76.480469 61.710938 L 76.472656 61.722656 C 75.613281 63.269531 74.492188 64.695312 73.140625 65.964844 C 71.839844 67.1875 70.359375 68.234375 68.734375 69.078125 C 69.023438 69.148438 69.320312 69.207031 69.605469 69.261719 C 69.859375 69.3125 70.117188 69.363281 70.371094 69.421875 L 70.378906 69.421875 L 70.371094 69.429688 C 69.457031 70.144531 68.351562 70.78125 66.980469 71.371094 C 65.339844 72.050781 63.695312 72.480469 62.085938 72.640625 C 60.488281 72.785156 59.230469 72.714844 58.132812 72.414062 C 58.007812 72.382812 57.882812 72.351562 57.761719 72.316406 C 57.601562 72.273438 57.4375 72.230469 57.269531 72.191406 C 56.820312 73.230469 56 74.050781 55.023438 74.441406 C 54.5625 74.640625 54.054688 74.738281 53.542969 74.738281 " fill-opacity="1" fill-rule="nonzero"/></g><path fill="#ffffff" d="M 46.683594 42.460938 C 47.660156 42.308594 48.695312 42.453125 49.558594 42.941406 C 50.175781 43.300781 50.710938 43.890625 50.808594 44.621094 C 50.910156 45.230469 50.578125 45.820312 50.136719 46.214844 C 49.484375 46.777344 48.632812 47.058594 47.785156 47.109375 C 46.863281 47.171875 45.902344 47.03125 45.109375 46.539062 C 44.609375 46.222656 44.167969 45.757812 44.03125 45.167969 C 43.878906 44.582031 44.109375 43.953125 44.511719 43.519531 C 45.066406 42.898438 45.875 42.570312 46.683594 42.460938 " fill-opacity="1" fill-rule="nonzero"/><path fill="#ffffff" d="M 47.421875 42.40625 C 47.179688 42.40625 46.933594 42.425781 46.683594 42.464844 C 46.257812 42.523438 45.859375 42.636719 45.503906 42.804688 C 45.109375 42.988281 44.777344 43.226562 44.515625 43.523438 C 44.082031 43.992188 43.894531 44.621094 44.035156 45.167969 C 44.15625 45.683594 44.535156 46.171875 45.109375 46.535156 C 46.015625 47.097656 47.0625 47.15625 47.785156 47.105469 C 48.695312 47.050781 49.527344 46.734375 50.132812 46.210938 C 50.644531 45.753906 50.894531 45.160156 50.804688 44.621094 C 50.757812 44.277344 50.617188 43.949219 50.375 43.644531 C 50.164062 43.375 49.882812 43.132812 49.558594 42.945312 C 48.929688 42.589844 48.1875 42.40625 47.421875 42.40625 Z M 47.386719 47.128906 C 46.703125 47.128906 45.855469 47.007812 45.105469 46.542969 C 44.53125 46.175781 44.148438 45.6875 44.027344 45.167969 C 43.886719 44.621094 44.070312 43.988281 44.507812 43.515625 C 44.773438 43.222656 45.105469 42.980469 45.5 42.796875 C 45.859375 42.628906 46.257812 42.515625 46.683594 42.457031 C 47.707031 42.296875 48.730469 42.46875 49.5625 42.9375 C 49.886719 43.125 50.171875 43.367188 50.382812 43.640625 C 50.625 43.945312 50.769531 44.273438 50.8125 44.621094 C 50.90625 45.160156 50.652344 45.757812 50.136719 46.21875 C 49.53125 46.742188 48.695312 47.0625 47.785156 47.117188 C 47.660156 47.125 47.527344 47.128906 47.386719 47.128906 " fill-opacity="1" fill-rule="nonzero"/></svg>